<?xml version="1.0" encoding="UTF-8"?><svg id="Layer_2" xmlns="http://www.w3.org/2000/svg" viewBox="0 0 232.14 227.69"><g id="Layer_1-2"><path d="M88.19,28.55c-2.39-2.23-7.19-14.33-6.31-17.88,4.93-19.94,51.81-8.96,58.58,8.7-5.24,17.01-41.25,19.46-52.27,9.18Z"/><path d="M27.59,6.19c25.23-2.96,63.27,33.96,17,35.16C6.24,42.34-1.63,9.62,27.59,6.19Z"/><path d="M54.24,103.85c17.91-2.43,60.43,15.72,32.33,29.6-3.97,1.96-14.49,4.92-18.78,5.12-28.68,1.35-40.38-31.09-13.55-34.72Z"/><path d="M114.29,120.78c-11.06-16.18,48.24-47.4,55.57-21.34s-49.11,30.79-55.57,21.34Z"/><path d="M168.2,40.29c-19.96-24.99,24.6-40.87,42.46-5.55,17.55,34.71-31.28,19.54-42.46,5.55Z"/><path d="M153.31,136.56c13.85-15.42,58.51-.77,52.22,18.09-5.75,17.23-76.92,9.4-52.22-18.09Z"/><path d="M211.68,174.24c9.27,23.18-37.13,56.42-48.85,32.56-10.86-22.1,31.93-37.29,48.85-32.56Z"/><path d="M101.95,100.04c-24.52,6.42-45.48-49.08-20.76-54.48,23.78-5.2,29.66,39.05,20.76,54.48Z"/><path d="M119.99,138.76c7.59,22.45-36.86,56.87-48.84,32.55-10.98-22.26,31.3-38.22,48.84-32.55Z"/><path d="M33.42,59.56c36.26-6.42,10.26,34.43-5.89,41.46-31.61,13.76-32.17-34.72,5.89-41.46Z"/><path d="M21.86,133.54c46.43-1.23,38.43,70.88-9.83,25.9-18.56-17.29-15.93-25.21,9.83-25.9Z"/><path d="M131.77,168.33c-2.22,9.68,9.38,13.65,11.26,19.81,3.71,12.15.79,38.84-15.59,39.53-34.41,1.43-6.46-69.53,4.33-59.34Z"/><path d="M48.16,186.75c14.62-3.24,33.98,2.67,42.39,15.45,14.79,22.49-47.57,20.85-52.93,5.58-3.51-9.98-.1-18.68,10.54-21.04Z"/><path d="M202.22,80.32c42.71.3,39.48,69.48-8.33,27.41-18.17-15.99-21.34-27.62,8.33-27.41Z"/><path d="M176.09,67.64c-8.65-.63-14.23,9.71-19.75,11.34-41.96,12.34-53.13-32.05-17.47-31.63,7.94.09,45.23,8.34,37.22,20.29Z"/></g></svg>