<?xml version="1.0" encoding="UTF-8"?><svg id="Layer_2" xmlns="http://www.w3.org/2000/svg" viewBox="0 0 242.19 233.53"><g id="Layer_1-2"><path d="M202.76,165.58c5.47,3.41,7.15,39.78-9.68,40.14-2.14.05-19.6-7.88-21.06-9.37-14-14.3,17.15-39.23,30.74-30.77Z"/><path d="M167.82,81.55c8.21,14.02-11.63,44.1-26.4,34.47-1.38-.9-12.89-18.34-13.1-19.53-2.66-15.13,29.24-21.25,39.49-14.94Z"/><path d="M199.9,34.99c7.4,4.79,8.86,43.21-12.02,39.71-1.56-.26-18.5-7.73-19.06-8.62-10.17-16.21,19.25-38.74,31.08-31.09Z"/><path d="M54.39,159.91c25.58-5.59,21.53,38.06,4.69,39.44-2.95.24-16.91-6.35-19.52-8.37-13.09-10.14,3.02-28.48,14.83-31.07Z"/><path d="M140.95,127.51c8.5,1.53,32.17,18.44,30.1,27.22-.73,3.08-27.35,16.59-29.96,16-10.49-2.34-10.01-36.74-.14-43.22Z"/><path d="M113.23,104.25c-19.17,4.3-50.54-12.49-30.59-32.05,19.21-18.83,35.79,13.65,30.59,32.05Z"/><path d="M135.68.25c20.51-3.61,43.04,32.84,4.81,34.25-22.88.85-25.83-30.55-4.81-34.25Z"/><path d="M234.83,106.87c-8.43,1.93-23.76-2.86-28.46-10.16-20.82-32.35,48.57-41.8,28.46,10.16Z"/><path d="M109.63,200.68c17.63,17.66-11.48,38.93-31.23,31.22-7.24-19.1,14.24-48.25,31.23-31.22Z"/><path d="M34.2,93.34c20.01,20.05-30.73,56.57-29.64,15.23.47-17.68,19.14-25.75,29.64-15.23Z"/><path d="M57.25,46.64c11.6-.67,13.16,36.29-.61,37.47-6.58.56-24.76-8.59-24.68-16.08.1-9.39,16.49-20.88,25.29-21.39Z"/><path d="M104.28,23.28c2.28,3.22-8.6,25.7-10.31,26.07-12.82,2.75-32.08-16.34-25.94-29.44,11.55-6.91,25.01-1.42,36.25,3.36Z"/><path d="M87.1,150.67c-2.51-14.64,5.24-25.98,16.37-34.61,35.86,19.76,17.56,37.54-16.37,34.61Z"/><path d="M130.62,191.27c24.59-4.99,52.03,19.29,20.19,33.41-15.05,6.68-22.73-22.37-20.19-33.41Z"/><path d="M195.97,105.2c10.24,1.08,11.78,36.54-2.89,36.68-1.64.02-17.67-6.16-18.92-7.17-11.69-9.47,9.74-30.78,21.81-29.51Z"/><path d="M60.25,107.59c16.88-3.02,26.69,11.5,13.65,25.5-20.32,21.82-42.51-20.35-13.65-25.5Z"/><path d="M7.82,142.35c16.33-5.39,33.73,20.38,14.78,29.37-25.94,12.3-27.63-25.13-14.78-29.37Z"/><path d="M237.16,145.65c16.06,15.73-10.4,38.13-22.6,21.18-10.72-14.91,4.44-38.96,22.6-21.18Z"/><path d="M121.54,165.53c10.99,17.59-30.31,37.9-28.91,6.9.76-16.71,27.06-9.85,28.91-6.9Z"/><path d="M116.26,46.35c10.83-2.7,29.72-2.42,28.89,12.65-1.42,25.48-37.25,11.49-28.89-12.65Z"/></g></svg>