<svg width="19" height="18" viewBox="0 0 19 18" fill="none" xmlns="http://www.w3.org/2000/svg">
<path d="M15.9697 6H3.96973C3.55551 6 3.21973 6.33579 3.21973 6.75V8.25C3.21973 8.66421 3.55551 9 3.96973 9H15.9697C16.3839 9 16.7197 8.66421 16.7197 8.25V6.75C16.7197 6.33579 16.3839 6 15.9697 6Z" stroke="#E67E22" stroke-width="1.5" stroke-linecap="round" stroke-linejoin="round"/>
<path d="M9.96973 6V15.75" stroke="#E67E22" stroke-width="1.5" stroke-linecap="round" stroke-linejoin="round"/>
<path d="M15.2197 9V14.25C15.2197 14.6478 15.0617 15.0294 14.7804 15.3107C14.4991 15.592 14.1176 15.75 13.7197 15.75H6.21973C5.8219 15.75 5.44037 15.592 5.15907 15.3107C4.87776 15.0294 4.71973 14.6478 4.71973 14.25V9" stroke="#E67E22" stroke-width="1.5" stroke-linecap="round" stroke-linejoin="round"/>
<path d="M6.59473 6.00008C6.09745 6.00008 5.62053 5.80254 5.2689 5.45091C4.91727 5.09928 4.71973 4.62236 4.71973 4.12508C4.71973 3.6278 4.91727 3.15089 5.2689 2.79926C5.62053 2.44763 6.09745 2.25008 6.59473 2.25008C7.31824 2.23748 8.02725 2.58853 8.62928 3.25745C9.23131 3.92638 9.69843 4.88214 9.96973 6.00008C10.241 4.88214 10.7081 3.92638 11.3102 3.25745C11.9122 2.58853 12.6212 2.23748 13.3447 2.25008C13.842 2.25008 14.3189 2.44763 14.6706 2.79926C15.0222 3.15089 15.2197 3.6278 15.2197 4.12508C15.2197 4.62236 15.0222 5.09928 14.6706 5.45091C14.3189 5.80254 13.842 6.00008 13.3447 6.00008" stroke="#E67E22" stroke-width="1.5" stroke-linecap="round" stroke-linejoin="round"/>
</svg>
