<svg width="25" height="24" viewBox="0 0 25 24" fill="none" xmlns="http://www.w3.org/2000/svg">
<path d="M15.9404 21V13C15.9404 12.7348 15.8351 12.4804 15.6475 12.2929C15.46 12.1054 15.2056 12 14.9404 12H10.9404C10.6752 12 10.4209 12.1054 10.2333 12.2929C10.0458 12.4804 9.94043 12.7348 9.94043 13V21" stroke="#7B3F3E" stroke-width="2" stroke-linecap="round" stroke-linejoin="round"/>
<path d="M3.94043 10.0005C3.94036 9.70952 4.00376 9.42208 4.12622 9.15817C4.24867 8.89427 4.42723 8.66025 4.64943 8.47246L11.6494 2.47346C12.0104 2.16836 12.4678 2.00098 12.9404 2.00098C13.4131 2.00098 13.8704 2.16836 14.2314 2.47346L21.2314 8.47246C21.4536 8.66025 21.6322 8.89427 21.7546 9.15817C21.8771 9.42208 21.9405 9.70952 21.9404 10.0005V19.0005C21.9404 19.5309 21.7297 20.0396 21.3546 20.4147C20.9796 20.7897 20.4709 21.0005 19.9404 21.0005H5.94043C5.41 21.0005 4.90129 20.7897 4.52622 20.4147C4.15114 20.0396 3.94043 19.5309 3.94043 19.0005V10.0005Z" stroke="#7B3F3E" stroke-width="2" stroke-linecap="round" stroke-linejoin="round"/>
</svg>
