<?xml version="1.0" encoding="UTF-8"?><svg id="Layer_2" xmlns="http://www.w3.org/2000/svg" viewBox="0 0 220.07 206.18"><g id="Layer_1-2"><path d="M159.16,65.44c-2.91-4.68-.62-23.09,6.23-25.95,7.26-3.03,34.93-1.75,42.37.54,18.69,5.76,15.28,39.1-4.66,41.64-5.89.75-42.13-13.32-43.95-16.23Z"/><path d="M93.38,35.89c-4.69-4.89-3.92-24.64,1.05-28.88C98.36,3.67,119.99-.22,125.56,0c26.07,1.07,32.59,48.72-4.34,46.1-5.09-.36-24.76-7.01-27.84-10.22Z"/><path d="M136.13,66.47c7.5,7.03,7.77,35.01-1.79,39.72-7.59,3.74-44.59-.82-49.09-7.79-15.76-24.41,39.54-42.55,50.88-31.92Z"/><path d="M45.41,159.52c22.58-1.63,57.25,16.59,32.55,39.38-19.04,17.56-52.33-10.56-50.05-23.26,1.39-7.71,9.44-15.53,17.5-16.12Z"/><path d="M40.74,27.26c29.94-6.86,35.69,44.59,25.15,49.59-9.13,4.33-32.25,4.02-37.31-6.7-4.53-9.58-.07-40.08,12.16-42.88Z"/><path d="M28.71,95.89c12.84-1.08,24.05-2.81,29.2,10.99,5.92,15.86-5.21,19.37-18.29,24.36-12.57,4.79-25.4,10.5-34.52-3.41-14.23-21.71,3.8-30.28,23.61-31.94Z"/><path d="M133.7,155.64c-2.36,2.16-31.8,12.35-34.91,11.91-5.32-.74-14.31-16.14-13.46-22.13.58-4.11,17.07-20.92,21.18-23.05,24.46-12.69,42.01,19.76,27.19,33.27Z"/><path d="M164.84,147.37c2.52-.02,10.43,4.38,12.11,6.59,6.63,8.72,4.03,47.21-7.73,50.67-43.19,12.72-24.95-57.09-4.39-57.27Z"/><path d="M159.42,123.83c-13.22-16.52,21.45-26.63,33.44-27.6,23.03-1.85,23.09,31.92,13.21,35.25-7.39,2.49-41.74-1.51-46.65-7.66Z"/></g></svg>