<?xml version="1.0" encoding="UTF-8"?><svg id="Layer_2" xmlns="http://www.w3.org/2000/svg" viewBox="0 0 265.79 249.83"><g id="Layer_1-2"><path d="M22.82,122.04c11.99,12.24-4.42,30.32-16.58,21.83-16.35-11.41,3.13-35.56,16.58-21.83Z"/><path d="M143.79,69.62c14.04-3.51,28.77,24.6,5.69,26.54-17.54,1.47-20.17-22.92-5.69-26.54Z"/><path d="M57.15,128.45c23.92-7.83,24.37,37.38,0,23.43-11.19-6.41-10.7-19.92,0-23.43Z"/><path d="M83.45,210.26c-12.83-12.5,14.78-36.5,21.93-13,4.6,15.12-12.25,22.44-21.93,13Z"/><path d="M137.05,4.42c9.35,10.74-6.47,30.09-18.43,20.16-15.66-13,6.64-33.7,18.43-20.16Z"/><path d="M116,218.43c12.8-4.22,24.91,11.26,15.03,22.19-14.75,16.33-33.05-16.26-15.03-22.19Z"/><path d="M71.26,28.63c11.25,11.5-2.84,30.2-16.45,21.71-15.96-9.95,4.06-34.37,16.45-21.71Z"/><path d="M147.25,197.67c8.64-2.17,25.34,11.02,11.62,22.33-19.87,16.37-29.05-17.95-11.62-22.33Z"/><path d="M105.85,44.16c-11.92,10.36-28.27-8.81-20.21-18.34,13.37-15.8,33.62,6.69,20.21,18.34Z"/><path d="M168.04,125.03c10.91-2.84,20.2,12.37,11.44,22.14-14.39,16.06-36.38-15.64-11.44-22.14Z"/><path d="M74.61,94.01c14.28-4.1,22.9,11.66,11.22,21.77-18.35,15.88-28.35-16.84-11.22-21.77Z"/><path d="M153.49,160.47c16.73-1.06,16.29,28.56-3.38,26.7-16.8-1.58-12.67-25.69,3.38-26.7Z"/><path d="M88.61,82.31c-7.05,7.59-20.05.47-20.24-11.29-.41-25.04,39.87-9.82,20.24,11.29Z"/><path d="M140.29,107.88c16.61-1.3,17.98,27.12-.63,27.24-14.44.09-17.81-25.8.63-27.24Z"/><path d="M174.86,48.88c9.1-.78,16.96,19.42,4.59,25.63-21.81,10.94-25.89-23.8-4.59-25.63Z"/><path d="M123.22,83.95c9.9,12.46-2.83,30.3-16.5,21.76-17.91-11.18,7.67-32.87,16.5-21.76Z"/><path d="M185.89,113.77c-13.41,8.57-37.67-14.98-13.42-22.35,18.22-5.54,20.34,17.93,13.42,22.35Z"/><path d="M31.13,69.73c2.97-5.21,20.22-11.12,25.49-.46,13.41,27.19-35.69,18.36-25.49.46Z"/><path d="M185.9,37.62c-15.25,9.49-28.8-13.96-17.06-22.23,18.32-12.9,27.42,15.77,17.06,22.23Z"/><path d="M199.22,121.81c23.22-6.66,23.12,18.98,8.96,23.04-16.58,4.75-23.28-18.94-8.96-23.04Z"/><path d="M244.73,62.83c10.36,6.45,1.26,35.13-17.06,22.23-11.74-8.27,1.81-31.72,17.06-22.23Z"/><path d="M234.35,149.35c10.36,6.45,1.26,35.13-17.06,22.23-11.74-8.27,1.81-31.72,17.06-22.23Z"/><path d="M181.94,194.34c17.53-4.89,25.4,18.5,8.91,23.21-16.66,4.76-24.57-18.85-8.91-23.21Z"/><path d="M188.13,157c10.98.14,19.17,11.75,8.74,21.39-19.56,18.07-30.51-21.67-8.74-21.39Z"/><path d="M43.59,149.67c17.14,18.18-20.65,36.84-20.22,11.28.2-11.72,13.04-18.9,20.22-11.28Z"/><path d="M154.89,55.11c-11.46,7.86-31.42-12.2-17.21-22.42,17.89-12.87,27.57,15.32,17.21,22.42Z"/><path d="M251.07,128.47c16.09-4.04,20.42,24.12,5.76,26.76-15.5,2.79-21.56-22.8-5.76-26.76Z"/><path d="M60.77,170.15c16.66-4.76,24.57,18.85,8.91,23.21-17.53,4.89-25.4-18.5-8.91-23.21Z"/><path d="M107.26,52.44c7.19-11.38,30.75,3.27,22.21,16.83-10.67,16.93-30.35-3.94-22.21-16.83Z"/><path d="M102.25,118.09c16.09-4.04,20.42,24.12,5.76,26.76-15.5,2.79-21.56-22.8-5.76-26.76Z"/><path d="M75.96,241.98c-7.39-11,13.94-29.33,22.34-17.17,12.85,18.58-15.68,27.09-22.34,17.17Z"/><path d="M34.42,124.3c-9.93-6.67-1.42-35.19,17.17-22.34,12.16,8.41-6.16,29.73-17.17,22.34Z"/><path d="M248.39,117.33c-36.19,25.24-32.49-24.24-8.93-16.56,4.37,1.42,11.03,13.52,8.93,16.56Z"/><path d="M84.65,149.14c14.69-4.78,23.71,16.85,15.37,22.37-19.19,12.7-29.19-17.87-15.37-22.37Z"/><path d="M208.93,77.12c6.25.52,17.93,14.58,6.43,22.94-19.61,14.26-25.92-24.57-6.43-22.94Z"/><path d="M119.31,145.68c17.23-5.55,25.92,19.41,9.27,23.57-13.51,3.38-21.22-19.73-9.27-23.57Z"/><path d="M122.95,176.93c13.74-3.5,21.53,21.86,2.69,23.96-17.25,1.93-14.44-20.97-2.69-23.96Z"/><path d="M13.82,200.27c-13.95-8.87,8.23-34.06,18.63-16.88,8.51,14.05-9.46,22.71-18.63,16.88Z"/><path d="M57.85,201.28c1.05.61,7.84,12.79,5.93,16.78-2.91,6.06-13.71,9.55-19.5,5.42-10.51-7.52,3.26-28.16,13.57-22.19Z"/><path d="M22.89,99.52c-11.59,11.21-25.94-6.07-18.43-16.61,8.77-12.29,29.35,6.05,18.43,16.61Z"/><path d="M162.4,248.96c-1.67-1.46-2.6-18.72,0-20.22,10.04-5.8,28.05,4.71,19.02,17.28-2.65,3.69-16.93,4.77-19.02,2.94Z"/><path d="M234.34,187.4c11.95,7.47-7.75,27.93-16.61,20.09-9.07-8.03,1.33-29.64,16.61-20.09Z"/><path d="M200.57,61.96c-8.39-5.24-1.91-29.79,13.69-18.86,10.88,7.62-2,26.17-13.69,18.86Z"/></g></svg>