<svg width="25" height="24" viewBox="0 0 25 24" fill="none" xmlns="http://www.w3.org/2000/svg">
<path d="M12.3105 13C12.8628 13 13.3105 12.5523 13.3105 12C13.3105 11.4477 12.8628 11 12.3105 11C11.7583 11 11.3105 11.4477 11.3105 12C11.3105 12.5523 11.7583 13 12.3105 13Z" stroke="#6B7280" stroke-width="2" stroke-linecap="round" stroke-linejoin="round"/>
<path d="M19.3105 13C19.8628 13 20.3105 12.5523 20.3105 12C20.3105 11.4477 19.8628 11 19.3105 11C18.7583 11 18.3105 11.4477 18.3105 12C18.3105 12.5523 18.7583 13 19.3105 13Z" stroke="#6B7280" stroke-width="2" stroke-linecap="round" stroke-linejoin="round"/>
<path d="M5.31055 13C5.86283 13 6.31055 12.5523 6.31055 12C6.31055 11.4477 5.86283 11 5.31055 11C4.75826 11 4.31055 11.4477 4.31055 12C4.31055 12.5523 4.75826 13 5.31055 13Z" stroke="#6B7280" stroke-width="2" stroke-linecap="round" stroke-linejoin="round"/>
</svg>
