<?xml version="1.0" encoding="UTF-8"?><svg id="Layer_2" xmlns="http://www.w3.org/2000/svg" viewBox="0 0 243.1 235.21"><g id="Layer_1-2"><path d="M177.87,133.24c-3.07,17.45-55.87-2.11-65.27-8.94-16.11-11.72-18.44-33.5,1.79-40.5,15.36-5.31,65.74,36.52,63.47,49.45Z"/><path d="M157.61,2.96c10.02,7.14,29.8,36.25,4.49,27.76-10.05-3.37-30.3-18.75-17.14-28.98,4.1-3.19,8.8-1.52,12.65,1.22Z"/><path d="M34.95,120.79c-3.14,11.9-23.36,40.7-24.37,14.02-.4-10.6,6.81-34.98,21.04-26.29,4.44,2.71,4.54,7.69,3.33,12.26Z"/><path d="M81.09,129.34c28.01,20.92,6.25,59.77-25.24,50.98-37.67-10.51-13.8-80.14,25.24-50.98Z"/><path d="M210.81,33.92c10.73,5.85,22.2,25.52,16.42,37.01-6.65,13.22-24.43,28-39.77,19.97-36.01-18.83,1.94-68.65,23.35-56.98Z"/><path d="M138.93,64.53c2.8-2.61,6.12-.38,8.62,1.22,6.39,4.09,45.21,39.49,37.96,46.73-3.11,3.11-17.68-8.17-20.78-10.8-11.79-9.98-17.7-24.48-25.8-37.15Z"/><path d="M84.46,82.29c.27,9.73-73.69,23.36-84.46,12.6.94-6.58,31.93-13.58,38.64-14.97,7.07-1.46,45.53-8.12,45.83,2.37Z"/><path d="M30.52,67.86c-.41-.03-4.45-3.11-2.68-4.46,5.91-11.1,65.58-52.12,73.68-39.56,3.52,5.46-13.7,15.22-17.94,18.12-7.87,5.4-45.82,26.5-53.06,25.9Z"/><path d="M238.17,85.93c.01,7.74-28.79,62.48-33.24,62.87-6.97-11.19.04-28.12,5.28-38.64,2.85-5.72,19.77-35.86,26.12-30.53-.23,2.28,1.83,4.31,1.83,6.29Z"/><path d="M112.69,189.24c-14.51-14.84-14.41-42.05,3.61-53.93,16.43,13.21,12.22,41.85-3.61,53.93Z"/><path d="M172.38,181.29c-7.91,9.55-26.92,27.01-40.44,22.4-29.66-10.11,40.64-38.7,40.44-22.4Z"/><path d="M168.78,220.84c-5.62,12.75-39.58,17.43-42.39,2.71-2.34-12.24,37.61-14.75,42.39-2.71Z"/><path d="M93.29,235.21c-15.6-10.36,3.34-51.68,14.61-31.52,5.44,9.74-6.97,25.79-14.61,31.52Z"/><path d="M210.6,173.35c17,10.12-8.06,41.54-20.1,17.35-6.19-12.43,11.18-22.66,20.1-17.35Z"/><path d="M135.51,26.72c12.91,0,18.81,17.18,4.53,26.88-17.23,11.7-25.8-26.88-4.53-26.88Z"/><path d="M114.97,52.54c7.03,4.17,9.39,19.51-3.72,20.82-24.3,2.43-14.2-31.45,3.72-20.82Z"/><path d="M219.7,171.29c-11.42-2.52-11.79-27.35,4.64-18.58,12.35,6.59,1.25,19.88-4.64,18.58Z"/><path d="M92.74,110.63c2.03,8.74-17.59,18.9-20.41,2.68-1.8-10.39,17.42-15.54,20.41-2.68Z"/><path d="M91.73,181.96c10.46,6.26-1.93,23.14-10.91,16.9-9.5-6.6.65-23.04,10.91-16.9Z"/><path d="M222.44,136.93c1.88-9.56,22.47-7.99,20.52,2.69-2.98,16.33-22.22,5.93-20.52-2.69Z"/><path d="M122.42,20.17c-31.91-5.69-4.29-29.47,3.96-13.24,1.53,3.01-1.29,12.75-3.96,13.24Z"/><path d="M152.64,158.11c2.33,10.09-18.54,10.48-19.06,1.81-.54-8.89,16.09-14.7,19.06-1.81Z"/><path d="M184.07,155.58c.29,1.19-5.62,10.78-6.82,10.76-1.62-.03-10.16-9.46-8.06-13.47,3.61-6.94,13.57-2.69,14.88,2.71Z"/></g></svg>