<svg width="25" height="24" viewBox="0 0 25 24" fill="none" xmlns="http://www.w3.org/2000/svg">
<path d="M11.4893 21.7299C11.7933 21.9054 12.1382 21.9979 12.4893 21.9979C12.8403 21.9979 13.1852 21.9054 13.4893 21.7299L20.4893 17.7299C20.793 17.5545 21.0453 17.3024 21.2208 16.9987C21.3963 16.6951 21.4889 16.3506 21.4893 15.9999V7.9999C21.4889 7.64918 21.3963 7.30471 21.2208 7.00106C21.0453 6.69742 20.793 6.44526 20.4893 6.2699L13.4893 2.2699C13.1852 2.09437 12.8403 2.00195 12.4893 2.00195C12.1382 2.00195 11.7933 2.09437 11.4893 2.2699L4.48926 6.2699C4.18552 6.44526 3.93324 6.69742 3.75772 7.00106C3.5822 7.30471 3.48962 7.64918 3.48926 7.9999V15.9999C3.48962 16.3506 3.5822 16.6951 3.75772 16.9987C3.93324 17.3024 4.18552 17.5545 4.48926 17.7299L11.4893 21.7299Z" stroke="#6B7280" stroke-width="2" stroke-linecap="round" stroke-linejoin="round"/>
<path d="M12.4893 22V12" stroke="#6B7280" stroke-width="2" stroke-linecap="round" stroke-linejoin="round"/>
<path d="M3.78906 7L11.4921 11.734C11.7954 11.9084 12.1392 12.0002 12.4891 12.0002C12.839 12.0002 13.1827 11.9084 13.4861 11.734L21.1891 7" stroke="#6B7280" stroke-width="2" stroke-linecap="round" stroke-linejoin="round"/>
<path d="M7.98926 4.26953L16.9893 9.41953" stroke="#6B7280" stroke-width="2" stroke-linecap="round" stroke-linejoin="round"/>
</svg>
